<svg width="1550" height="2164" viewBox="0 0 1550 2164" fill="none" xmlns="http://www.w3.org/2000/svg">
<path opacity="0.15" d="M774.744 0L0 1892.93V1924.81L787.798 0H774.744ZM814.617 0L0 1990.35V2022.23L827.671 0H814.617ZM734.871 0L0 1795.51V1827.39L747.925 0H734.871ZM655.125 0L0 1600.69V1632.57L668.179 0H655.125ZM694.998 0L0 1698.11V1730L708.052 0H694.998ZM575.378 0L0 1405.84V1437.73L588.433 0H575.378ZM854.49 0L0 2087.74V2119.63L867.544 0H854.49ZM615.252 0L0 1503.27V1535.15L628.306 0H615.252ZM1093.69 0L208.042 2164H221.096L1106.74 0H1093.69ZM1053.82 0L168.169 2164H181.223L1066.87 0H1053.82ZM1133.56 0L247.875 2164H260.93L1146.62 0H1133.56ZM934.196 0L48.5497 2164H61.604L947.29 0H934.236H934.196ZM1013.94 0L128.296 2164H141.35L1027.04 0H1013.98H1013.94ZM894.323 0L8.67662 2164H21.731L907.417 0H894.363H894.323ZM974.069 0L88.4227 2164H101.477L987.163 0H974.109H974.069ZM415.926 0L0 1016.21V1048.1L428.98 0H415.926ZM535.545 0L0 1308.45V1340.33L548.56 0H535.505H535.545ZM176.688 0L0 431.706V463.587L189.742 0H176.688ZM216.561 0L0 529.13V561.011L229.615 0H216.561ZM17.2349 0L0 42.0766V73.9577L30.2499 0H17.1955H17.2349ZM256.473 0L0 626.553V658.434L269.488 0H256.434H256.473ZM96.9416 0L0 236.891V268.772L109.996 0H96.9416ZM57.0685 0L0 139.468V171.349L70.1229 0H57.0685ZM136.815 0L0 334.315V366.196L149.869 0H136.815ZM455.759 0L0 1113.61V1145.49L468.853 0H455.799H455.759ZM495.632 0L0 1211.03V1242.91L508.687 0H495.632ZM1173.43 0L287.748 2164H300.803L1186.49 0H1173.43ZM376.053 0L0 918.791V950.672L389.107 0H376.053ZM296.307 0L0 723.944V755.825L309.361 0H296.307ZM336.18 0L0 821.368V853.249L349.234 0H336.18ZM1058.35 2164L1549.96 962.842V930.961L1045.3 2164H1058.35ZM1177.97 2164L1549.96 1255.08V1223.2L1164.92 2164H1177.97ZM1138.1 2164L1549.96 1157.69V1125.81L1125.04 2164H1138.1ZM1217.84 2164L1549.96 1352.5V1320.62L1204.79 2164H1217.84ZM1213.31 0L327.621 2164H340.676L1226.36 0H1213.31ZM978.605 2164L1549.96 768.028V736.146L965.55 2164H978.605ZM1018.48 2164L1549.96 865.419V833.538L1005.42 2163.97H1018.48V2164ZM1098.22 2164L1549.96 1060.27V1028.38L1085.17 2164H1098.22ZM1257.72 2164L1550 1449.93V1418.05L1244.7 2164H1257.76H1257.72ZM1457.08 2164L1550 1936.98V1905.1L1444.03 2164H1457.08ZM1496.95 2164L1550 2034.4V2002.52L1483.9 2164H1496.95ZM1536.83 2164L1550 2131.83V2099.95L1523.77 2164H1536.83ZM1377.34 2164L1550 1742.17V1710.28L1364.28 2164H1377.34ZM1417.21 2164L1550 1839.59V1807.71L1404.15 2164H1417.21ZM1337.46 2164L1550 1644.74V1612.86L1324.45 2164H1337.5H1337.46ZM1297.59 2164L1550 1547.32V1515.44L1284.57 2163.97H1297.63L1297.59 2164ZM938.771 2164L1550 670.604V638.723L925.717 2164H938.771ZM1372.8 0L487.114 2164H500.168L1385.85 0H1372.8ZM1412.67 0L526.987 2164H540.041L1425.73 0H1412.67ZM1452.55 0L566.86 2164H579.914L1465.6 0H1452.55ZM1253.18 0L367.494 2164H380.549L1266.23 0H1253.18ZM1492.42 0L606.733 2164H619.787L1505.47 0H1492.42ZM1332.93 0L447.241 2164H460.295L1345.98 0H1332.93ZM1293.05 0L407.367 2164H420.422L1306.11 0H1293.05ZM858.986 2164L1549.96 475.757V443.876L845.931 2163.97H858.986V2164ZM819.113 2164L1549.96 378.366V346.485L806.058 2164H819.113ZM1532.29 0L646.606 2164H659.66L1545.35 0H1532.29ZM779.24 2164L1549.96 280.942V249.061L766.225 2164H779.279H779.24ZM898.859 2164L1549.96 573.18V541.299L885.804 2163.97H898.859V2164ZM686.479 2164H699.533L1549.96 86.0952V54.2141L686.479 2163.97V2164ZM739.406 2164L1549.96 183.519V151.638L726.352 2163.97H739.406V2164Z" fill="url(#paint0_radial_354_342)"/>
<defs>
<radialGradient id="paint0_radial_354_342" cx="0" cy="0" r="1" gradientUnits="userSpaceOnUse" gradientTransform="translate(767.372 272.429) scale(1315.1 3210.12)">
<stop stop-color="white"/>
<stop offset="0.19" stop-color="#F8F9F9"/>
<stop offset="0.46" stop-color="#E6E9EB"/>
<stop offset="0.76" stop-color="#CACFD3"/>
<stop offset="1" stop-color="#AEB6BD"/>
</radialGradient>
</defs>
</svg>
