<svg width="1550" height="2164" fill="none" xmlns="http://www.w3.org/2000/svg"><path opacity=".15" d="M774.744 0 0 1892.93v31.88L787.798 0h-13.054zm39.873 0L0 1990.35v31.88L827.671 0h-13.054zm-79.746 0L0 1795.51v31.88L747.925 0h-13.054zm-79.746 0L0 1600.69v31.88L668.179 0h-13.054zm39.873 0L0 1698.11V1730L708.052 0h-13.054zm-119.62 0L0 1405.84v31.89L588.433 0h-13.055zM854.49 0 0 2087.74v31.89L867.544 0H854.49zM615.252 0 0 1503.27v31.88L628.306 0h-13.054zm478.438 0L208.042 2164h13.054L1106.74 0h-13.05zm-39.87 0L168.169 2164h13.054L1066.87 0h-13.05zm79.74 0L247.875 2164h13.055L1146.62 0h-13.06zM934.196 0 48.55 2164h13.054L947.29 0h-13.094zm79.744 0L128.296 2164h13.054L1027.04 0h-13.1zM894.323 0 8.677 2164H21.73L907.417 0h-13.094zm79.746 0L88.423 2164h13.054L987.163 0h-13.094zM415.926 0 0 1016.21v31.89L428.98 0h-13.054zm119.619 0L0 1308.45v31.88L548.56 0h-13.055.04zM176.688 0 0 431.706v31.881L189.742 0h-13.054zm39.873 0L0 529.13v31.881L229.615 0h-13.054zM17.235 0 0 42.077v31.88L30.25 0H17.195h.04zm239.238 0L0 626.553v31.881L269.488 0h-13.054.039zM96.942 0 0 236.891v31.881L109.996 0H96.942zM57.069 0 0 139.468v31.881L70.123 0H57.068zm79.746 0L0 334.315v31.881L149.869 0h-13.054zm318.944 0L0 1113.61v31.88L468.853 0h-13.094zm39.873 0L0 1211.03v31.88L508.687 0h-13.055zm677.798 0L287.748 2164h13.055L1186.49 0h-13.06zM376.053 0 0 918.791v31.881L389.107 0h-13.054zm-79.746 0L0 723.944v31.881L309.361 0h-13.054zm39.873 0L0 821.368v31.881L349.234 0H336.18zm722.17 2164 491.61-1201.158v-31.881L1045.3 2164h13.05zm119.62 0 371.99-908.92v-31.88L1164.92 2164h13.05zm-39.87 0 411.86-1006.31v-31.88L1125.04 2164h13.06zm79.74 0 332.12-811.5v-31.88L1204.79 2164h13.05zM1213.31 0 327.621 2164h13.055L1226.36 0h-13.05zM978.605 2164 1549.96 768.028v-31.882L965.55 2164h13.055zm39.875 0 531.48-1298.581v-31.881L1005.42 2163.97h13.06v.03zm79.74 0 451.74-1103.73v-31.89L1085.17 2164h13.05zm159.5 0L1550 1449.93v-31.88L1244.7 2164h13.06-.04zm199.36 0 92.92-227.02v-31.88L1444.03 2164h13.05zm39.87 0 53.05-129.6v-31.88L1483.9 2164h13.05zm39.88 0 13.17-32.17v-31.88l-26.23 64.05h13.06zm-159.49 0L1550 1742.17v-31.89L1364.28 2164h13.06zm39.87 0L1550 1839.59v-31.88L1404.15 2164h13.06zm-79.75 0L1550 1644.74v-31.88L1324.45 2164h13.05-.04zm-39.87 0L1550 1547.32v-31.88l-265.43 648.53h13.06l-.04.03zm-358.819 0L1550 670.604v-31.881L925.717 2164h13.054zM1372.8 0 487.114 2164h13.054L1385.85 0h-13.05zm39.87 0L526.987 2164h13.054L1425.73 0h-13.06zm39.88 0L566.86 2164h13.054L1465.6 0h-13.05zm-199.37 0L367.494 2164h13.055L1266.23 0h-13.05zm239.24 0L606.733 2164h13.054L1505.47 0h-13.05zm-159.49 0L447.241 2164h13.054L1345.98 0h-13.05zm-39.88 0L407.367 2164h13.055L1306.11 0h-13.06zM858.986 2164 1549.96 475.757v-31.881L845.931 2163.97h13.055v.03zm-39.873 0L1549.96 378.366v-31.881L806.058 2164h13.055zM1532.29 0 646.606 2164h13.054L1545.35 0h-13.06zM779.24 2164l770.72-1883.058v-31.881L766.225 2164h13.054-.039zm119.619 0L1549.96 573.18v-31.881L885.804 2163.97h13.055v.03zm-212.38 0h13.054L1549.96 86.095v-31.88L686.479 2163.97v.03zm52.927 0L1549.96 183.519v-31.881L726.352 2163.97h13.054v.03z" fill="url(#a)"/><defs><radialGradient id="a" cx="0" cy="0" r="1" gradientUnits="userSpaceOnUse" gradientTransform="matrix(1315.1 0 0 3210.12 767.372 272.429)"><stop stop-color="#fff"/><stop offset=".19" stop-color="#F8F9F9"/><stop offset=".46" stop-color="#E6E9EB"/><stop offset=".76" stop-color="#CACFD3"/><stop offset="1" stop-color="#AEB6BD"/></radialGradient></defs></svg>