<svg width="1440" height="1024" viewBox="0 0 1440 1024" fill="none" xmlns="http://www.w3.org/2000/svg">
<path d="M1440 511.844L180.38 -5.50598e-05L159.165 -5.59871e-05L1440 520.468L1440 511.844ZM1440 538.186L115.551 -5.78935e-05L94.3359 -5.88208e-05L1440 546.811L1440 538.186ZM1440 485.501L245.209 -5.2226e-05L223.994 -5.31533e-05L1440 494.126L1440 485.501ZM1440 432.816L374.845 -4.65594e-05L353.63 -4.74867e-05L1440 441.44L1440 432.816ZM1440 459.159L310.016 -4.93932e-05L288.801 -5.03205e-05L1440 467.783L1440 459.159ZM1440 380.131L504.503 -4.08919e-05L483.288 -4.18192e-05L1440 388.755L1440 380.131ZM1440 564.529L50.7433 -6.07263e-05L29.5284 -6.16537e-05L1440 573.154L1440 564.529ZM1440 406.473L439.674 -4.37256e-05L418.459 -4.4653e-05L1440 415.098L1440 406.473ZM1440 722.558L-6.00793e-06 137.445L-6.38492e-06 146.07L1440 731.183L1440 722.558ZM1440 696.216L-4.85645e-06 111.103L-5.23344e-06 119.727L1440 704.84L1440 696.216ZM1440 748.901L-7.15826e-06 163.762L-7.53525e-06 172.386L1440 757.526L1440 748.901ZM1440 617.188L-1.40204e-06 32.0749L-1.77903e-06 40.6994L1440 625.839L1440 617.214L1440 617.188ZM1440 669.873L-3.70498e-06 84.7601L-4.08197e-06 93.3846L1440 678.524L1440 669.899L1440 669.873ZM1440 590.846L-2.50568e-07 5.73225L-6.27558e-07 14.3568L1440 599.496L1440 590.872L1440 590.846ZM1440 643.531L-2.55351e-06 58.4175L-2.9305e-06 67.042L1440 652.181L1440 643.557L1440 643.531ZM1440 274.786L763.776 -2.95587e-05L742.561 -3.0486e-05L1440 283.411L1440 274.786ZM1440 353.814L569.31 -3.80591e-05L548.096 -3.89864e-05L1440 362.413L1440 353.788L1440 353.814ZM1440 116.731L1152.73 -1.25571e-05L1131.51 -1.34844e-05L1440 125.355L1440 116.731ZM1440 143.073L1087.9 -1.53908e-05L1066.68 -1.63182e-05L1440 151.698L1440 143.073ZM1440 11.3865L1412 -1.22388e-06L1390.79 -2.15121e-06L1440 19.9849L1440 11.3604L1440 11.3865ZM1440 169.442L1023.07 -1.82246e-05L1001.86 -1.91519e-05L1440 178.041L1440 169.416L1440 169.442ZM1440 64.0456L1282.36 -6.89047e-06L1261.15 -7.8178e-06L1440 72.6701L1440 64.0456ZM1440 37.703L1347.19 -4.05671e-06L1325.98 -4.98404e-06L1440 46.3275L1440 37.703ZM1440 90.3882L1217.54 -9.72424e-06L1196.32 -1.06516e-05L1440 99.0127L1440 90.3882ZM1440 301.103L698.968 -3.23915e-05L677.754 -3.33189e-05L1440 309.754L1440 301.129L1440 301.103ZM1440 327.446L634.139 -3.52253e-05L612.925 -3.61526e-05L1440 336.07L1440 327.446ZM1440 775.244L-8.30973e-06 190.104L-8.68672e-06 198.729L1440 783.868L1440 775.244ZM1440 248.444L828.605 -2.67249e-05L807.39 -2.76523e-05L1440 257.068L1440 248.444ZM1440 195.759L958.263 -2.10574e-05L937.048 -2.19847e-05L1440 204.383L1440 195.759ZM1440 222.101L893.434 -2.38912e-05L872.219 -2.48185e-05L1440 230.726L1440 222.101ZM-3.05635e-05 699.212L799.292 1024L820.506 1024L-3.01866e-05 690.588L-3.05635e-05 699.212ZM-3.4018e-05 778.24L604.826 1024L626.041 1024L-3.3641e-05 769.616L-3.4018e-05 778.24ZM-3.28665e-05 751.898L669.634 1024L690.849 1024L-3.24895e-05 743.273L-3.28665e-05 751.898ZM-3.51694e-05 804.583L539.997 1024L561.212 1024L-3.47924e-05 795.958L-3.51694e-05 804.583ZM1440 801.586L-9.4612e-06 216.447L-9.83819e-06 225.072L1440 810.211L1440 801.586ZM-2.82606e-05 646.527L928.928 1024L950.143 1024L-2.78836e-05 637.903L-2.82606e-05 646.527ZM-2.94121e-05 672.87L864.121 1024L885.335 1024L0.0215774 664.245L0.021577 672.87L-2.94121e-05 672.87ZM-3.1715e-05 725.555L734.463 1024L755.677 1024L-3.1338e-05 716.93L-3.1715e-05 725.555ZM-3.63209e-05 830.925L475.168 1024.03L496.383 1024.03L-3.59451e-05 822.327L-3.6322e-05 830.951L-3.63209e-05 830.925ZM-4.20783e-05 962.638L151.067 1024.03L172.281 1024.03L-4.17013e-05 954.014L-4.20783e-05 962.638ZM-4.32297e-05 988.981L86.2376 1024.03L107.452 1024.03L-4.28527e-05 980.356L-4.32297e-05 988.981ZM-4.43812e-05 1015.32L21.4086 1024.03L42.6235 1024.03L-4.40042e-05 1006.7L-4.43812e-05 1015.32ZM-3.97753e-05 909.953L280.703 1024.03L301.918 1024.03L-3.93983e-05 901.329L-3.97753e-05 909.953ZM-4.09268e-05 936.296L215.874 1024.03L237.089 1024.03L-4.05498e-05 927.671L-4.09268e-05 936.296ZM-3.86238e-05 883.61L345.532 1024.03L366.747 1024.03L-3.8248e-05 875.012L-3.8625e-05 883.637L-3.86238e-05 883.61ZM-3.74724e-05 857.268L410.361 1024.03L431.576 1024.03L0.0215693 848.669L0.021569 857.294L-3.74724e-05 857.268ZM-2.71103e-05 620.211L993.757 1024.03L1014.97 1024.03L-2.67333e-05 611.586L-2.71103e-05 620.211ZM1440 906.957L-1.40671e-05 321.817L-1.44441e-05 330.442L1440 915.581L1440 906.957ZM1440 933.299L-1.52186e-05 348.16L-1.55955e-05 356.785L1440 941.924L1440 933.299ZM1440 959.642L-1.637e-05 374.503L-1.6747e-05 383.127L1440 968.266L1440 959.642ZM1440 827.929L-1.06127e-05 242.79L-1.09897e-05 251.414L1440 836.553L1440 827.929ZM1440 985.984L-1.75215e-05 400.845L-1.78985e-05 409.47L1440 994.609L1440 985.984ZM1440 880.614L-1.29156e-05 295.475L-1.32926e-05 304.099L1440 889.239L1440 880.614ZM1440 854.271L-1.17641e-05 269.132L-1.21411e-05 277.757L1440 862.896L1440 854.271ZM-2.48062e-05 567.499L1123.41 1024L1144.63 1024L0.021582 558.875L0.0215816 567.499L-2.48062e-05 567.499ZM-2.36547e-05 541.157L1188.22 1024L1209.44 1024L-2.32777e-05 532.532L-2.36547e-05 541.157ZM1440 1012.33L-1.8673e-05 427.188L-1.905e-05 435.812L1440 1020.95L1440 1012.33ZM-2.25032e-05 514.814L1253.05 1024L1274.27 1024L-2.21274e-05 506.216L-2.25044e-05 514.84L-2.25032e-05 514.814ZM-2.59577e-05 593.842L1058.59 1024L1079.8 1024L0.0215809 585.217L0.0215805 593.842L-2.59577e-05 593.842ZM-1.98244e-05 453.53L-2.02014e-05 462.155L1382.71 1024L1403.92 1024L0.0215866 453.53L-1.98244e-05 453.53ZM-2.13529e-05 488.498L1317.88 1024L1339.1 1024L0.0215855 479.873L0.0215851 488.498L-2.13529e-05 488.498Z" fill="url(#paint0_radial_483_5497)"/>
<defs>
<radialGradient id="paint0_radial_483_5497" cx="0" cy="0" r="1" gradientUnits="userSpaceOnUse" gradientTransform="translate(1258.72 506.974) rotate(90) scale(868.837 2136.13)">
<stop stop-color="white"/>
<stop offset="0.19" stop-color="#F8F9F9"/>
<stop offset="0.46" stop-color="#E6E9EB"/>
<stop offset="0.76" stop-color="#CACFD3"/>
<stop offset="1" stop-color="#AEB6BD"/>
</radialGradient>
</defs>
</svg>
